<?xml version="1.0" encoding="UTF-8"?><svg xmlns="http://www.w3.org/2000/svg" xmlns:xlink="http://www.w3.org/1999/xlink" contentScriptType="text/ecmascript" width="375pt" zoomAndPan="magnify" contentStyleType="text/css" viewBox="0 0 375 374.999991" height="374.999991pt" preserveAspectRatio="xMidYMid meet" version="1.2"><defs><g/></defs><g xml:id="surface1" id="surface1"><g style="fill:rgb(79.60968%,42.349243%,90.19928%);fill-opacity:1;"><g transform="translate(81.262498, 197.549987)"><path style="stroke:none;" d="M 4.859375 -1.8125 L 7.671875 -2.421875 L 7.671875 -20.234375 L 3.328125 -20.234375 L 2.453125 -16.421875 L 0.390625 -16.421875 L 0.390625 -22.6875 L 19.1875 -22.6875 L 19.1875 -16.421875 L 17.109375 -16.421875 L 16.234375 -20.234375 L 11.96875 -20.234375 L 11.96875 -2.421875 L 14.765625 -1.8125 L 14.765625 0 L 4.859375 0 Z M 4.859375 -1.8125 "/></g></g><g style="fill:rgb(79.60968%,42.349243%,90.19928%);fill-opacity:1;"><g transform="translate(101.20811, 197.549987)"><path style="stroke:none;" d="M 8.71875 0.421875 C 6.03125 0.421875 4.050781 -0.34375 2.78125 -1.875 C 1.507812 -3.40625 0.875 -5.582031 0.875 -8.40625 C 0.875 -10.082031 1.1875 -11.628906 1.8125 -13.046875 C 2.445312 -14.472656 3.410156 -15.617188 4.703125 -16.484375 C 6.003906 -17.347656 7.597656 -17.78125 9.484375 -17.78125 C 12.097656 -17.78125 14.039062 -17.015625 15.3125 -15.484375 C 16.582031 -13.953125 17.21875 -11.859375 17.21875 -9.203125 C 17.21875 -6.398438 16.515625 -4.09375 15.109375 -2.28125 C 13.710938 -0.476562 11.582031 0.421875 8.71875 0.421875 Z M 9.34375 -2 C 10.738281 -2 11.679688 -2.53125 12.171875 -3.59375 C 12.671875 -4.65625 12.921875 -6.316406 12.921875 -8.578125 C 12.921875 -10.179688 12.804688 -11.453125 12.578125 -12.390625 C 12.359375 -13.328125 11.976562 -14.019531 11.4375 -14.46875 C 10.90625 -14.925781 10.140625 -15.15625 9.140625 -15.15625 C 8.035156 -15.15625 7.195312 -14.921875 6.625 -14.453125 C 6.0625 -13.984375 5.679688 -13.285156 5.484375 -12.359375 C 5.285156 -11.441406 5.1875 -10.179688 5.1875 -8.578125 C 5.1875 -7.015625 5.296875 -5.769531 5.515625 -4.84375 C 5.734375 -3.925781 6.140625 -3.222656 6.734375 -2.734375 C 7.328125 -2.242188 8.195312 -2 9.34375 -2 Z M 9.34375 -2 "/></g></g><g style="fill:rgb(79.60968%,42.349243%,90.19928%);fill-opacity:1;"><g transform="translate(119.859017, 197.549987)"><path style="stroke:none;" d="M 0.453125 4.03125 L 2.875 3.53125 L 2.875 -14.34375 L 0.0625 -14.875 L 0.0625 -16.6875 L 5.875 -17.5625 L 6.65625 -16 L 6.796875 -15.953125 C 7.472656 -16.492188 8.257812 -16.925781 9.15625 -17.25 C 10.050781 -17.582031 10.90625 -17.75 11.71875 -17.75 C 13.726562 -17.75 15.28125 -17.070312 16.375 -15.71875 C 17.476562 -14.363281 18.03125 -12.4375 18.03125 -9.9375 C 18.03125 -7.9375 17.707031 -6.175781 17.0625 -4.65625 C 16.414062 -3.132812 15.507812 -1.957031 14.34375 -1.125 C 13.175781 -0.300781 11.835938 0.109375 10.328125 0.109375 C 9.671875 0.109375 9.023438 0.0078125 8.390625 -0.1875 C 7.765625 -0.382812 7.21875 -0.671875 6.75 -1.046875 L 6.6875 -0.90625 L 6.859375 -0.59375 L 6.859375 3.46875 L 10.21875 3.953125 L 10.21875 5.78125 L 0.453125 5.78125 Z M 9.484375 -2.34375 C 10.972656 -2.34375 12.046875 -2.84375 12.703125 -3.84375 C 13.359375 -4.851562 13.6875 -6.507812 13.6875 -8.8125 C 13.6875 -11.03125 13.394531 -12.597656 12.8125 -13.515625 C 12.226562 -14.441406 11.25 -14.90625 9.875 -14.90625 C 8.84375 -14.90625 7.835938 -14.734375 6.859375 -14.390625 L 6.859375 -2.9375 C 7.578125 -2.539062 8.453125 -2.34375 9.484375 -2.34375 Z M 9.484375 -2.34375 "/></g></g><g style="fill:rgb(79.60968%,42.349243%,90.19928%);fill-opacity:1;"><g transform="translate(139.559694, 197.549987)"><path style="stroke:none;" d="M 0.453125 4.03125 L 2.875 3.53125 L 2.875 -14.34375 L 0.0625 -14.875 L 0.0625 -16.6875 L 5.875 -17.5625 L 6.65625 -16 L 6.796875 -15.953125 C 7.472656 -16.492188 8.257812 -16.925781 9.15625 -17.25 C 10.050781 -17.582031 10.90625 -17.75 11.71875 -17.75 C 13.726562 -17.75 15.28125 -17.070312 16.375 -15.71875 C 17.476562 -14.363281 18.03125 -12.4375 18.03125 -9.9375 C 18.03125 -7.9375 17.707031 -6.175781 17.0625 -4.65625 C 16.414062 -3.132812 15.507812 -1.957031 14.34375 -1.125 C 13.175781 -0.300781 11.835938 0.109375 10.328125 0.109375 C 9.671875 0.109375 9.023438 0.0078125 8.390625 -0.1875 C 7.765625 -0.382812 7.21875 -0.671875 6.75 -1.046875 L 6.6875 -0.90625 L 6.859375 -0.59375 L 6.859375 3.46875 L 10.21875 3.953125 L 10.21875 5.78125 L 0.453125 5.78125 Z M 9.484375 -2.34375 C 10.972656 -2.34375 12.046875 -2.84375 12.703125 -3.84375 C 13.359375 -4.851562 13.6875 -6.507812 13.6875 -8.8125 C 13.6875 -11.03125 13.394531 -12.597656 12.8125 -13.515625 C 12.226562 -14.441406 11.25 -14.90625 9.875 -14.90625 C 8.84375 -14.90625 7.835938 -14.734375 6.859375 -14.390625 L 6.859375 -2.9375 C 7.578125 -2.539062 8.453125 -2.34375 9.484375 -2.34375 Z M 9.484375 -2.34375 "/></g></g><g style="fill:rgb(79.60968%,42.349243%,90.19928%);fill-opacity:1;"><g transform="translate(159.260365, 197.549987)"><path style="stroke:none;" d="M 5.046875 -19.734375 C 4.335938 -19.734375 3.753906 -19.972656 3.296875 -20.453125 C 2.847656 -20.929688 2.625 -21.546875 2.625 -22.296875 C 2.625 -23.046875 2.878906 -23.691406 3.390625 -24.234375 C 3.910156 -24.785156 4.539062 -25.0625 5.28125 -25.0625 C 6.007812 -25.0625 6.597656 -24.832031 7.046875 -24.375 C 7.503906 -23.914062 7.734375 -23.304688 7.734375 -22.546875 C 7.734375 -21.773438 7.484375 -21.113281 6.984375 -20.5625 C 6.484375 -20.007812 5.835938 -19.734375 5.046875 -19.734375 Z M 0.765625 -1.75 L 3.5625 -2.234375 L 3.5625 -14.34375 L 0.765625 -14.875 L 0.765625 -16.6875 L 6.4375 -17.5625 L 7.5625 -17.109375 L 7.5625 -2.234375 L 10.078125 -1.75 L 10.078125 0 L 0.765625 0 Z M 0.765625 -1.75 "/></g></g><g style="fill:rgb(79.60968%,42.349243%,90.19928%);fill-opacity:1;"><g transform="translate(170.45795, 197.549987)"><path style="stroke:none;" d="M 0.8125 -1.75 L 3.5625 -2.234375 L 3.5625 -14.34375 L 0.8125 -14.875 L 0.8125 -16.6875 L 6.578125 -17.5625 L 7.3125 -16.09375 L 7.421875 -16.03125 C 8.140625 -16.5 9 -16.90625 10 -17.25 C 11.007812 -17.601562 11.945312 -17.78125 12.8125 -17.78125 C 14.394531 -17.78125 15.59375 -17.363281 16.40625 -16.53125 C 17.226562 -15.707031 17.640625 -14.476562 17.640625 -12.84375 L 17.640625 -2.234375 L 20.296875 -1.75 L 20.296875 0 L 11.09375 0 L 11.09375 -1.75 L 13.65625 -2.234375 L 13.65625 -12.140625 C 13.65625 -13.171875 13.425781 -13.890625 12.96875 -14.296875 C 12.507812 -14.703125 11.707031 -14.90625 10.5625 -14.90625 C 9.519531 -14.90625 8.519531 -14.789062 7.5625 -14.5625 L 7.5625 -2.234375 L 10.109375 -1.75 L 10.109375 0 L 0.8125 0 Z M 0.8125 -1.75 "/></g></g><g style="fill:rgb(79.60968%,42.349243%,90.19928%);fill-opacity:1;"><g transform="translate(191.733259, 197.549987)"><path style="stroke:none;" d="M 7.53125 5.8125 C 5.382812 5.8125 3.671875 5.492188 2.390625 4.859375 C 1.117188 4.234375 0.484375 3.253906 0.484375 1.921875 C 0.484375 1.015625 0.804688 0.242188 1.453125 -0.390625 C 2.097656 -1.035156 2.910156 -1.640625 3.890625 -2.203125 C 3.535156 -2.597656 3.359375 -3.132812 3.359375 -3.8125 C 3.359375 -4.320312 3.535156 -4.8125 3.890625 -5.28125 C 4.253906 -5.75 4.695312 -6.132812 5.21875 -6.4375 C 3.8125 -6.738281 2.742188 -7.378906 2.015625 -8.359375 C 1.296875 -9.335938 0.9375 -10.410156 0.9375 -11.578125 C 0.9375 -13.492188 1.617188 -15 2.984375 -16.09375 C 4.359375 -17.195312 6.09375 -17.75 8.1875 -17.75 C 9.726562 -17.75 11.023438 -17.394531 12.078125 -16.6875 C 12.421875 -16.96875 12.921875 -17.273438 13.578125 -17.609375 C 14.234375 -17.953125 14.84375 -18.125 15.40625 -18.125 C 16.519531 -18.125 17.078125 -17.578125 17.078125 -16.484375 C 17.078125 -16.015625 16.953125 -15.609375 16.703125 -15.265625 C 16.460938 -14.929688 16.210938 -14.671875 15.953125 -14.484375 L 15.015625 -14.90625 C 14.753906 -15.019531 14.5 -15.125 14.25 -15.21875 C 14.007812 -15.3125 13.765625 -15.359375 13.515625 -15.359375 C 13.878906 -14.867188 14.148438 -14.332031 14.328125 -13.75 C 14.503906 -13.164062 14.59375 -12.609375 14.59375 -12.078125 C 14.59375 -10.929688 14.28125 -9.914062 13.65625 -9.03125 C 13.039062 -8.144531 12.191406 -7.445312 11.109375 -6.9375 C 10.023438 -6.4375 8.832031 -6.1875 7.53125 -6.1875 L 7.03125 -6.1875 L 7.03125 -4.625 L 10.984375 -3.921875 C 12.859375 -3.597656 14.210938 -3.132812 15.046875 -2.53125 C 15.890625 -1.9375 16.3125 -1 16.3125 0.28125 C 16.3125 1.375 15.90625 2.335938 15.09375 3.171875 C 14.289062 4.015625 13.21875 4.664062 11.875 5.125 C 10.539062 5.582031 9.09375 5.8125 7.53125 5.8125 Z M 7.734375 -8.546875 C 8.410156 -8.546875 8.941406 -8.632812 9.328125 -8.8125 C 9.710938 -9 10 -9.347656 10.1875 -9.859375 C 10.375 -10.378906 10.46875 -11.117188 10.46875 -12.078125 C 10.46875 -13.242188 10.285156 -14.078125 9.921875 -14.578125 C 9.554688 -15.078125 8.875 -15.328125 7.875 -15.328125 C 6.800781 -15.328125 6.070312 -15.082031 5.6875 -14.59375 C 5.300781 -14.101562 5.109375 -13.191406 5.109375 -11.859375 C 5.109375 -10.628906 5.300781 -9.769531 5.6875 -9.28125 C 6.070312 -8.789062 6.753906 -8.546875 7.734375 -8.546875 Z M 8.296875 3.5625 C 9.742188 3.5625 10.820312 3.367188 11.53125 2.984375 C 12.238281 2.609375 12.59375 2.09375 12.59375 1.4375 C 12.59375 0.925781 12.457031 0.507812 12.1875 0.1875 C 11.925781 -0.125 11.398438 -0.347656 10.609375 -0.484375 L 5.390625 -1.328125 C 4.597656 -0.441406 4.203125 0.453125 4.203125 1.359375 C 4.203125 2.160156 4.503906 2.726562 5.109375 3.0625 C 5.710938 3.394531 6.773438 3.5625 8.296875 3.5625 Z M 8.296875 3.5625 "/></g></g><g style="fill:rgb(0%,0%,0%);fill-opacity:1;"><g transform="translate(208.809365, 197.549987)"><path style="stroke:none;" d=""/></g></g><g style="fill:rgb(100%,56.858826%,30.198669%);fill-opacity:1;"><g transform="translate(215.699989, 197.549987)"><path style="stroke:none;" d="M 8.78125 0.484375 C 7.21875 0.484375 5.773438 0.289062 4.453125 -0.09375 C 3.140625 -0.476562 2.191406 -0.878906 1.609375 -1.296875 L 1.609375 -7.0625 L 3.84375 -7.0625 L 4.515625 -3.5 C 4.984375 -3.101562 5.609375 -2.765625 6.390625 -2.484375 C 7.171875 -2.203125 7.921875 -2.0625 8.640625 -2.0625 C 10.234375 -2.0625 11.375 -2.347656 12.0625 -2.921875 C 12.75 -3.492188 13.09375 -4.335938 13.09375 -5.453125 C 13.09375 -6.109375 12.957031 -6.644531 12.6875 -7.0625 C 12.414062 -7.488281 11.976562 -7.867188 11.375 -8.203125 C 10.769531 -8.546875 9.835938 -8.984375 8.578125 -9.515625 L 7.765625 -9.828125 C 6.410156 -10.390625 5.328125 -10.90625 4.515625 -11.375 C 3.703125 -11.84375 3.015625 -12.5 2.453125 -13.34375 C 1.890625 -14.195312 1.609375 -15.300781 1.609375 -16.65625 C 1.609375 -17.96875 1.925781 -19.117188 2.5625 -20.109375 C 3.207031 -21.097656 4.132812 -21.863281 5.34375 -22.40625 C 6.5625 -22.957031 7.976562 -23.234375 9.59375 -23.234375 C 10.738281 -23.234375 11.9375 -23.140625 13.1875 -22.953125 C 14.445312 -22.773438 15.382812 -22.578125 16 -22.359375 L 16 -16.375 L 13.859375 -16.375 L 13.125 -19.875 C 11.976562 -20.363281 10.8125 -20.609375 9.625 -20.609375 C 8.15625 -20.609375 7.125 -20.351562 6.53125 -19.84375 C 5.9375 -19.332031 5.640625 -18.570312 5.640625 -17.5625 C 5.640625 -16.9375 5.804688 -16.40625 6.140625 -15.96875 C 6.484375 -15.539062 6.914062 -15.191406 7.4375 -14.921875 C 7.957031 -14.660156 8.695312 -14.34375 9.65625 -13.96875 C 10.007812 -13.851562 10.234375 -13.769531 10.328125 -13.71875 C 11.773438 -13.15625 12.957031 -12.597656 13.875 -12.046875 C 14.800781 -11.503906 15.554688 -10.796875 16.140625 -9.921875 C 16.722656 -9.046875 17.015625 -7.96875 17.015625 -6.6875 C 17.015625 -4.1875 16.207031 -2.363281 14.59375 -1.21875 C 12.988281 -0.0820312 11.050781 0.484375 8.78125 0.484375 Z M 8.78125 0.484375 "/></g></g><g style="fill:rgb(100%,56.858826%,30.198669%);fill-opacity:1;"><g transform="translate(234.700823, 197.549987)"><path style="stroke:none;" d="M 0.703125 -1.75 L 3.5 -2.234375 L 3.5 -21.3125 L 0.671875 -21.84375 L 0.671875 -23.65625 L 6.375 -24.46875 L 7.484375 -24.046875 L 7.484375 -16.375 L 7.3125 -16.09375 L 7.3125 -15.953125 C 8.039062 -16.421875 8.894531 -16.835938 9.875 -17.203125 C 10.851562 -17.566406 11.804688 -17.75 12.734375 -17.75 C 14.253906 -17.75 15.4375 -17.359375 16.28125 -16.578125 C 17.132812 -15.796875 17.5625 -14.550781 17.5625 -12.84375 L 17.5625 -2.234375 L 20.234375 -1.75 L 20.234375 0 L 11.03125 0 L 11.03125 -1.75 L 13.578125 -2.234375 L 13.578125 -12.140625 C 13.578125 -13.148438 13.351562 -13.867188 12.90625 -14.296875 C 12.46875 -14.722656 11.664062 -14.9375 10.5 -14.9375 C 10.050781 -14.9375 9.539062 -14.898438 8.96875 -14.828125 C 8.40625 -14.765625 7.910156 -14.675781 7.484375 -14.5625 L 7.484375 -2.234375 L 10.046875 -1.75 L 10.046875 0 L 0.703125 0 Z M 0.703125 -1.75 "/></g></g><g style="fill:rgb(100%,56.858826%,30.198669%);fill-opacity:1;"><g transform="translate(255.906154, 197.549987)"><path style="stroke:none;" d="M 8.71875 0.421875 C 6.03125 0.421875 4.050781 -0.34375 2.78125 -1.875 C 1.507812 -3.40625 0.875 -5.582031 0.875 -8.40625 C 0.875 -10.082031 1.1875 -11.628906 1.8125 -13.046875 C 2.445312 -14.472656 3.410156 -15.617188 4.703125 -16.484375 C 6.003906 -17.347656 7.597656 -17.78125 9.484375 -17.78125 C 12.097656 -17.78125 14.039062 -17.015625 15.3125 -15.484375 C 16.582031 -13.953125 17.21875 -11.859375 17.21875 -9.203125 C 17.21875 -6.398438 16.515625 -4.09375 15.109375 -2.28125 C 13.710938 -0.476562 11.582031 0.421875 8.71875 0.421875 Z M 9.34375 -2 C 10.738281 -2 11.679688 -2.53125 12.171875 -3.59375 C 12.671875 -4.65625 12.921875 -6.316406 12.921875 -8.578125 C 12.921875 -10.179688 12.804688 -11.453125 12.578125 -12.390625 C 12.359375 -13.328125 11.976562 -14.019531 11.4375 -14.46875 C 10.90625 -14.925781 10.140625 -15.15625 9.140625 -15.15625 C 8.035156 -15.15625 7.195312 -14.921875 6.625 -14.453125 C 6.0625 -13.984375 5.679688 -13.285156 5.484375 -12.359375 C 5.285156 -11.441406 5.1875 -10.179688 5.1875 -8.578125 C 5.1875 -7.015625 5.296875 -5.769531 5.515625 -4.84375 C 5.734375 -3.925781 6.140625 -3.222656 6.734375 -2.734375 C 7.328125 -2.242188 8.195312 -2 9.34375 -2 Z M 9.34375 -2 "/></g></g><g style="fill:rgb(100%,56.858826%,30.198669%);fill-opacity:1;"><g transform="translate(274.557064, 197.549987)"><path style="stroke:none;" d="M 0.453125 4.03125 L 2.875 3.53125 L 2.875 -14.34375 L 0.0625 -14.875 L 0.0625 -16.6875 L 5.875 -17.5625 L 6.65625 -16 L 6.796875 -15.953125 C 7.472656 -16.492188 8.257812 -16.925781 9.15625 -17.25 C 10.050781 -17.582031 10.90625 -17.75 11.71875 -17.75 C 13.726562 -17.75 15.28125 -17.070312 16.375 -15.71875 C 17.476562 -14.363281 18.03125 -12.4375 18.03125 -9.9375 C 18.03125 -7.9375 17.707031 -6.175781 17.0625 -4.65625 C 16.414062 -3.132812 15.507812 -1.957031 14.34375 -1.125 C 13.175781 -0.300781 11.835938 0.109375 10.328125 0.109375 C 9.671875 0.109375 9.023438 0.0078125 8.390625 -0.1875 C 7.765625 -0.382812 7.21875 -0.671875 6.75 -1.046875 L 6.6875 -0.90625 L 6.859375 -0.59375 L 6.859375 3.46875 L 10.21875 3.953125 L 10.21875 5.78125 L 0.453125 5.78125 Z M 9.484375 -2.34375 C 10.972656 -2.34375 12.046875 -2.84375 12.703125 -3.84375 C 13.359375 -4.851562 13.6875 -6.507812 13.6875 -8.8125 C 13.6875 -11.03125 13.394531 -12.597656 12.8125 -13.515625 C 12.226562 -14.441406 11.25 -14.90625 9.875 -14.90625 C 8.84375 -14.90625 7.835938 -14.734375 6.859375 -14.390625 L 6.859375 -2.9375 C 7.578125 -2.539062 8.453125 -2.34375 9.484375 -2.34375 Z M 9.484375 -2.34375 "/></g></g></g></svg>